<?xml version="1.0" encoding="utf-8"?>
<!-- Generator: Adobe Illustrator 16.0.0, SVG Export Plug-In . SVG Version: 6.00 Build 0)  -->
<!DOCTYPE svg PUBLIC "-//W3C//DTD SVG 1.1//EN" "http://www.w3.org/Graphics/SVG/1.1/DTD/svg11.dtd">
<svg version="1.1" id="state_icons" xmlns="http://www.w3.org/2000/svg" xmlns:xlink="http://www.w3.org/1999/xlink" x="0px"
	 y="0px" width="981.521px" height="744.565px" viewBox="0 0 981.521 744.565" enable-background="new 0 0 981.521 744.565"
	 xml:space="preserve">
<g id="golden_gate_SF">
	<polygon fill-rule="evenodd" clip-rule="evenodd" points="6.98,673.46 97.195,673.46 97.885,655.107 101.382,655.107 
		101.382,583.634 60.746,567.871 29.136,544.681 11.903,536.087 8.578,531.209 6.98,531.209 	"/>
	<polyline fill="none" stroke="#000000" stroke-width="0.4812" stroke-linecap="round" stroke-linejoin="round" points="
		6.98,673.46 97.195,673.46 97.885,655.107 101.382,655.107 101.382,583.634 60.746,567.871 29.136,544.681 11.903,536.087 
		8.578,531.209 6.98,531.209 6.98,673.46 	"/>
	<polygon fill-rule="evenodd" clip-rule="evenodd" points="482.797,509.876 439.869,515.705 397.117,522.396 354.451,529.999 
		312.042,538.377 269.848,547.659 227.7,557.768 185.854,568.864 157.135,576.985 157.135,602.939 175.62,628.895 181.58,653.206 
		194.191,660.72 209.346,657.396 211.809,661.543 216.817,663.226 221.957,664.046 253.871,656.531 265.705,662.405 
		269.028,664.866 272.354,665.731 274.945,664.866 301.893,660.72 310.23,665.731 315.367,667.414 318.693,668.32 339.679,666.552 
		343.956,670.006 348.967,670.828 352.29,670.006 373.409,668.32 384.378,659.9 404.458,659.08 431.406,664.866 430.586,667.414 
		463.363,671.688 463.363,670.006 407.827,630.579 360.755,607.083 446.521,597.931 482.797,605.442 482.797,628.895 
		471.829,628.895 471.829,651.565 464.184,651.565 464.184,673.374 104.969,673.374 103.241,657.396 107.43,657.396 107.43,581.951 
		119.565,578.021 159.037,565.627 198.81,554.095 238.845,543.343 279.005,533.584 319.428,524.513 360.066,516.439 400.79,509.185 
		441.64,502.835 482.797,497.223 	"/>
	<polyline fill="none" stroke="#000000" stroke-width="0.4812" stroke-linecap="round" stroke-linejoin="round" points="
		482.797,509.876 439.869,515.705 397.117,522.396 354.451,529.999 312.042,538.377 269.848,547.659 227.7,557.768 185.854,568.864 
		157.135,576.985 157.135,602.939 175.62,628.895 181.58,653.206 194.191,660.72 209.346,657.396 211.809,661.543 216.817,663.226 
		221.957,664.046 253.871,656.531 265.705,662.405 269.028,664.866 272.354,665.731 274.945,664.866 301.893,660.72 310.23,665.731 
		315.367,667.414 318.693,668.32 339.679,666.552 343.956,670.006 348.967,670.828 352.29,670.006 373.409,668.32 384.378,659.9 
		404.458,659.08 431.406,664.866 430.586,667.414 463.363,671.688 463.363,670.006 407.827,630.579 360.755,607.083 
		446.521,597.931 482.797,605.442 482.797,628.895 471.829,628.895 471.829,651.565 464.184,651.565 464.184,673.374 
		104.969,673.374 103.241,657.396 107.43,657.396 107.43,581.951 119.565,578.021 159.037,565.627 198.81,554.095 238.845,543.343 
		279.005,533.584 319.428,524.513 360.066,516.439 400.79,509.185 441.64,502.835 482.797,497.223 482.797,509.876 	"/>
	<polyline fill="none" stroke="#000000" stroke-width="2" stroke-linecap="round" stroke-linejoin="round" points="360.755,607.083 
		345.641,598.794 312.73,596.157 239.577,603.76 200.84,601.254 161.326,608.769 	"/>
	<polygon fill-rule="evenodd" clip-rule="evenodd" points="482.666,473.426 442.979,479.127 403.336,485.69 363.865,493.29 
		324.652,501.799 285.569,511.084 246.832,521.448 208.224,532.633 170.005,544.681 132.003,557.637 94.343,571.586 83.246,575.86 
		96.718,581.259 109.935,576.726 150.443,563.597 191.21,551.332 232.193,540.017 273.436,529.652 315.022,520.107 356.609,511.514 
		398.541,503.914 440.476,497.134 482.666,491.434 	"/>
	<polyline fill="none" stroke="#000000" stroke-width="0.4812" stroke-linecap="round" stroke-linejoin="round" points="
		482.666,473.426 442.979,479.127 403.336,485.69 363.865,493.29 324.652,501.799 285.569,511.084 246.832,521.448 208.224,532.633 
		170.005,544.681 132.003,557.637 94.343,571.586 83.246,575.86 96.718,581.259 109.935,576.726 150.443,563.597 191.21,551.332 
		232.193,540.017 273.436,529.652 315.022,520.107 356.609,511.514 398.541,503.914 440.476,497.134 482.666,491.434 
		482.666,473.426 	"/>
	<polygon fill-rule="evenodd" clip-rule="evenodd" points="112.353,560.877 108.033,562.776 108.033,459.218 119.132,459.218 
		119.132,459.218 116.974,464.096 115.419,469.366 114.468,474.634 114.209,479.99 114.468,485.215 115.548,490.568 
		117.105,495.579 119.132,500.07 119.132,500.07 143.575,500.07 143.575,500.07 145.303,494.284 146.513,488.196 147.117,482.105 
		147.032,476.061 146.425,469.973 145.001,464.01 143.575,459.218 143.575,459.218 108.033,459.218 109.329,410.028 
		116.023,410.028 116.023,410.028 114.383,415.384 113.261,420.999 112.914,426.568 113.173,432.184 113.993,437.799 
		115.548,443.283 116.023,444.707 116.023,444.707 145.303,444.707 145.303,444.707 147.117,439.826 148.325,434.689 
		148.931,429.422 148.931,424.325 148.196,419.1 146.901,414.088 145.303,410.028 145.303,410.028 109.329,410.028 108.033,365.591 
		119.132,365.591 119.132,365.591 117.105,369.521 115.676,373.666 114.944,377.943 114.815,382.391 115.289,386.665 
		116.413,390.941 118.141,395.002 119.132,396.557 119.132,396.557 147.721,396.557 147.721,396.557 149.361,391.805 
		150.443,386.796 150.788,381.656 150.571,376.519 149.751,371.55 148.196,366.67 147.721,365.591 147.721,365.591 108.033,365.591 
		109.329,350.907 109.329,346.632 111.143,344.864 112.914,345.422 114.815,346.632 114.815,350.348 120.903,352.119 
		120.903,352.119 125.049,354.016 129.366,355.229 133.902,355.832 138.438,355.702 142.971,355.095 147.248,353.802 
		150.788,352.119 150.788,352.119 150.788,348.532 152.602,347.324 153.897,348.532 154.503,350.907 151.998,444.707 
		154.503,444.707 156.878,542.653 145.907,546.928 145.907,546.928 146.166,538.246 145.693,529.652 144.742,521.059 
		144.139,517.732 144.139,517.732 119.132,517.732 119.132,517.732 116.499,525.725 114.468,533.841 113.173,542.133 
		112.438,550.513 112.353,558.975 112.353,560.271 	"/>
	<polyline fill="none" stroke="#000000" stroke-width="0.4812" stroke-linecap="round" stroke-linejoin="round" points="
		112.353,560.877 108.033,562.776 108.033,459.218 119.132,459.218 119.132,459.218 116.974,464.096 115.419,469.366 
		114.468,474.634 114.209,479.99 114.468,485.215 115.548,490.568 117.105,495.579 119.132,500.07 119.132,500.07 143.575,500.07 
		143.575,500.07 145.303,494.284 146.513,488.196 147.117,482.105 147.032,476.061 146.425,469.973 145.001,464.01 143.575,459.218 
		143.575,459.218 108.033,459.218 109.329,410.028 116.023,410.028 116.023,410.028 114.383,415.384 113.261,420.999 
		112.914,426.568 113.173,432.184 113.993,437.799 115.548,443.283 116.023,444.707 116.023,444.707 145.303,444.707 
		145.303,444.707 147.117,439.826 148.325,434.689 148.931,429.422 148.931,424.325 148.196,419.1 146.901,414.088 145.303,410.028 
		145.303,410.028 109.329,410.028 108.033,365.591 119.132,365.591 119.132,365.591 117.105,369.521 115.676,373.666 
		114.944,377.943 114.815,382.391 115.289,386.665 116.413,390.941 118.141,395.002 119.132,396.557 119.132,396.557 
		147.721,396.557 147.721,396.557 149.361,391.805 150.443,386.796 150.788,381.656 150.571,376.519 149.751,371.55 148.196,366.67 
		147.721,365.591 147.721,365.591 108.033,365.591 109.329,350.907 109.329,346.632 111.143,344.864 112.914,345.422 
		114.815,346.632 114.815,350.348 120.903,352.119 120.903,352.119 125.049,354.016 129.366,355.229 133.902,355.832 
		138.438,355.702 142.971,355.095 147.248,353.802 150.788,352.119 150.788,352.119 150.788,348.532 152.602,347.324 
		153.897,348.532 154.503,350.907 151.998,444.707 154.503,444.707 156.878,542.653 145.907,546.928 145.907,546.928 
		146.166,538.246 145.693,529.652 144.742,521.059 144.139,517.732 144.139,517.732 119.132,517.732 119.132,517.732 
		116.499,525.725 114.468,533.841 113.173,542.133 112.438,550.513 112.353,558.975 112.353,560.271 112.353,560.877 	"/>
	<polygon fill-rule="evenodd" clip-rule="evenodd" points="115.419,372.846 120.3,396.557 125.221,396.557 116.627,369.133 	"/>
	<polyline fill="none" stroke="#000000" stroke-width="0.4812" stroke-linecap="round" stroke-linejoin="round" points="
		115.419,372.846 120.3,396.557 125.221,396.557 116.627,369.133 115.419,372.846 	"/>
	<polygon fill-rule="evenodd" clip-rule="evenodd" points="130.101,410.028 130.403,410.851 137.012,427.693 142.84,444.707 
		139.862,444.707 136.493,438.271 132.348,429.117 128.763,419.701 125.784,410.028 	"/>
	<polyline fill="none" stroke="#000000" stroke-width="0.4812" stroke-linecap="round" stroke-linejoin="round" points="
		130.101,410.028 130.403,410.851 137.012,427.693 142.84,444.707 139.862,444.707 136.493,438.271 132.348,429.117 
		128.763,419.701 125.784,410.028 130.101,410.028 	"/>
	
		<line fill="none" stroke="#000000" stroke-width="2" stroke-linecap="round" stroke-linejoin="round" x1="120.903" y1="500.07" x2="130.707" y2="459.218"/>
	
		<line fill="none" stroke="#000000" stroke-width="2" stroke-linecap="round" stroke-linejoin="round" x1="133.771" y1="444.707" x2="141.029" y2="410.028"/>
	
		<line fill="none" stroke="#000000" stroke-width="2" stroke-linecap="round" stroke-linejoin="round" x1="143.575" y1="396.557" x2="149.017" y2="365.591"/>
	<polygon fill-rule="evenodd" clip-rule="evenodd" points="916.853,636.537 919.488,568.477 975.846,557.42 975.846,453.517 
		951.876,454.337 950.235,451.748 952.827,450.063 975.846,450.063 975.846,412.622 944.233,414.305 939.956,412.622 
		940.781,370.816 935.685,370.816 935.685,359.719 926.271,359.719 926.271,370.816 921.129,370.816 912.535,638.308 
		916.853,636.537 	"/>
	<polyline fill="none" stroke="#000000" stroke-width="0.4812" stroke-linecap="round" stroke-linejoin="round" points="
		916.853,636.537 919.488,568.477 975.846,557.42 975.846,453.517 951.876,454.337 950.235,451.748 952.827,450.063 
		975.846,450.063 975.846,412.622 944.233,414.305 939.956,412.622 940.781,370.816 935.685,370.816 935.685,359.719 
		926.271,359.719 926.271,370.816 921.129,370.816 912.535,638.308 916.853,636.537 916.853,636.537 	"/>
	<polygon fill-rule="evenodd" clip-rule="evenodd" points="903.167,456.022 904.113,418.579 786.132,432.184 784.32,430.544 
		785.181,427.907 785.181,425.404 795.545,423.633 796.365,395.605 787.817,395.605 787.817,386.191 781.854,386.191 
		781.854,394.657 778.403,394.657 775.897,463.665 	"/>
	<polyline fill="none" stroke="#000000" stroke-width="0.4812" stroke-linecap="round" stroke-linejoin="round" points="
		903.167,456.022 904.113,418.579 786.132,432.184 784.32,430.544 785.181,427.907 785.181,425.404 795.545,423.633 
		796.365,395.605 787.817,395.605 787.817,386.191 781.854,386.191 781.854,394.657 778.403,394.657 775.897,463.665 
		903.167,456.022 	"/>
	<polygon fill-rule="evenodd" clip-rule="evenodd" points="775.897,467.119 902.302,459.477 899.841,539.544 899.841,539.544 
		896.731,530.731 892.888,522.269 888.264,514.15 882.779,506.679 881.829,505.469 881.829,505.469 878.161,500.591 
		873.844,496.314 868.833,492.729 863.479,489.836 857.778,487.806 851.816,486.77 845.729,486.513 842.488,486.642 
		842.488,486.642 835.363,488.541 828.41,491.26 821.89,494.76 815.802,499.033 810.357,504.045 805.437,509.529 804.013,511.429 
		804.013,511.429 796.975,524.385 790.796,537.772 785.312,551.461 780.647,565.539 776.975,579.835 774.086,594.215 
		772.054,608.899 771.621,614.512 	"/>
	<polyline fill="none" stroke="#000000" stroke-width="0.4812" stroke-linecap="round" stroke-linejoin="round" points="
		775.897,467.119 902.302,459.477 899.841,539.544 899.841,539.544 896.731,530.731 892.888,522.269 888.264,514.15 
		882.779,506.679 881.829,505.469 881.829,505.469 878.161,500.591 873.844,496.314 868.833,492.729 863.479,489.836 
		857.778,487.806 851.816,486.77 845.729,486.513 842.488,486.642 842.488,486.642 835.363,488.541 828.41,491.26 821.89,494.76 
		815.802,499.033 810.357,504.045 805.437,509.529 804.013,511.429 804.013,511.429 796.975,524.385 790.796,537.772 
		785.312,551.461 780.647,565.539 776.975,579.835 774.086,594.215 772.054,608.899 771.621,614.512 775.897,467.119 	"/>
	<polygon fill-rule="evenodd" clip-rule="evenodd" points="975.715,696.609 975.715,740.656 956.198,735.563 956.198,732.453 
		929.335,728.393 927.308,724.332 891.333,721.223 844.043,714.096 806.992,714.096 784.019,711.464 760.652,708.961 
		614.687,708.961 607.864,711.593 487.159,711.593 491.22,705.895 496.358,705.895 499.422,697.688 508.75,694.579 512.811,683.392 
		554.959,683.392 559.15,697.688 561.178,697.688 564.634,706.627 570.938,704.209 574.179,706.627 585.967,701.356 
		609.675,700.539 618.701,690.519 626.002,690.519 637.313,697.688 645.564,704.813 653.771,699.719 656.834,695.658 
		656.834,688.488 675.36,688.488 675.36,691.47 686.636,697.688 708.226,699.719 707.274,702.785 720.577,704.813 733.966,701.749 
		765.88,689.439 768.989,694.579 773.05,696.609 777.195,702.785 793.648,701.749 798.785,698.725 804.959,700.755 820.335,698.725 
		825.472,701.749 830.614,697.688 844.994,692.549 861.446,697.688 883.127,687.409 888.264,698.725 912.923,696.609 
		922.211,690.519 953.088,699.719 964.404,700.755 974.638,698.725 	"/>
	<polyline fill="none" stroke="#000000" stroke-width="0.4812" stroke-linecap="round" stroke-linejoin="round" points="
		975.715,696.609 975.715,740.656 956.198,735.563 956.198,732.453 929.335,728.393 927.308,724.332 891.333,721.223 
		844.043,714.096 806.992,714.096 784.019,711.464 760.652,708.961 614.687,708.961 607.864,711.593 487.159,711.593 
		491.22,705.895 496.358,705.895 499.422,697.688 508.75,694.579 512.811,683.392 554.959,683.392 559.15,697.688 561.178,697.688 
		564.634,706.627 570.938,704.209 574.179,706.627 585.967,701.356 609.675,700.539 618.701,690.519 626.002,690.519 
		637.313,697.688 645.564,704.813 653.771,699.719 656.834,695.658 656.834,688.488 675.36,688.488 675.36,691.47 686.636,697.688 
		708.226,699.719 707.274,702.785 720.577,704.813 733.966,701.749 765.88,689.439 768.989,694.579 773.05,696.609 777.195,702.785 
		793.648,701.749 798.785,698.725 804.959,700.755 820.335,698.725 825.472,701.749 830.614,697.688 844.994,692.549 
		861.446,697.688 883.127,687.409 888.264,698.725 912.923,696.609 922.211,690.519 953.088,699.719 964.404,700.755 
		974.638,698.725 975.715,696.609 	"/>
	<polygon fill-rule="evenodd" clip-rule="evenodd" points="736.472,701.228 736.472,686.33 727.053,677.045 661.629,677.045 
		666.032,683.221 479.215,683.221 478.478,674.539 485.388,674.539 485.388,650.962 487.894,650.962 487.894,628.071 
		490.399,628.071 491.607,489.62 495.407,489.62 495.407,495.234 495.407,495.234 514.023,492.47 563.165,485.563 612.528,479.472 
		661.886,473.901 711.204,469.021 760.783,464.833 760.783,464.833 760.783,480.896 760.783,480.896 722.178,483.66 
		683.566,487.114 645.046,491.175 606.565,495.924 580.096,499.509 580.096,499.509 560.101,500.244 502.793,508.795 
		502.793,538.679 523.438,514.409 518.381,506.42 542.094,502.618 535.789,512.639 508.408,546.711 554.531,546.711 
		530.214,519.418 535.789,512.639 560.101,541.096 560.101,555.996 508.408,555.996 529.61,578.409 550.209,555.996 
		560.101,555.996 536.519,584.585 559.492,615.591 559.492,618.054 550.813,618.054 529.61,593.913 510.868,614.381 
		504.086,609.375 523.995,586.484 504.086,565.41 504.086,609.375 510.868,614.381 515.92,615.591 521.495,613.779 551.422,618.054 
		559.492,618.054 560.101,555.996 560.101,500.244 580.096,499.509 580.096,499.509 578.798,618.054 637.313,610.67 
		672.211,616.889 699.068,628.071 728.955,625.568 745.755,634.247 748.26,635.457 754.434,640.466 754.434,680.154 770.026,678.34 
		770.026,685.727 758.277,685.727 755.731,688.272 757.543,690.174 758.277,691.945 	"/>
	<polyline fill="none" stroke="#000000" stroke-width="0.4812" stroke-linecap="round" stroke-linejoin="round" points="
		736.472,701.228 736.472,686.33 727.053,677.045 661.629,677.045 666.032,683.221 479.215,683.221 478.478,674.539 
		485.388,674.539 485.388,650.962 487.894,650.962 487.894,628.071 490.399,628.071 491.607,489.62 495.407,489.62 495.407,495.234 
		495.407,495.234 514.023,492.47 563.165,485.563 612.528,479.472 661.886,473.901 711.204,469.021 760.783,464.833 
		760.783,464.833 760.783,480.896 760.783,480.896 722.178,483.66 683.566,487.114 645.046,491.175 606.565,495.924 
		580.096,499.509 580.096,499.509 560.101,500.244 502.793,508.795 502.793,538.679 523.438,514.409 518.381,506.42 
		542.094,502.618 535.789,512.639 508.408,546.711 554.531,546.711 530.214,519.418 535.789,512.639 560.101,541.096 
		560.101,555.996 508.408,555.996 529.61,578.409 550.209,555.996 560.101,555.996 536.519,584.585 559.492,615.591 
		559.492,618.054 550.813,618.054 529.61,593.913 510.868,614.381 504.086,609.375 523.995,586.484 504.086,565.41 504.086,609.375 
		510.868,614.381 515.92,615.591 521.495,613.779 551.422,618.054 559.492,618.054 560.101,555.996 560.101,500.244 
		580.096,499.509 580.096,499.509 578.798,618.054 637.313,610.67 672.211,616.889 699.068,628.071 728.955,625.568 
		745.755,634.247 748.26,635.457 754.434,640.466 754.434,680.154 770.026,678.34 770.026,685.727 758.277,685.727 755.731,688.272 
		757.543,690.174 758.277,691.945 736.472,701.228 	"/>
	<polyline fill="none" stroke="#000000" stroke-width="2" stroke-linecap="round" stroke-linejoin="round" points="820.335,698.854 
		832.254,679.465 835.711,673.98 839.51,670.957 852.637,660.72 871.338,647.246 884.078,646.426 897.205,642.151 912.535,637.963 
		917.587,636.665 977.013,620.084 	"/>
	<polygon fill-rule="evenodd" clip-rule="evenodd" points="903.383,411.585 893.753,412.878 893.014,397.636 898.372,397.636 
		898.372,391.676 904.198,391.676 	"/>
	<polyline fill="none" stroke="#000000" stroke-width="0.4812" stroke-linecap="round" stroke-linejoin="round" points="
		903.383,411.585 893.753,412.878 893.014,397.636 898.372,397.636 898.372,391.676 904.198,391.676 903.383,411.585 	"/>
	<polyline fill="none" stroke="#000000" stroke-width="2" stroke-linecap="round" stroke-linejoin="round" points="839.771,658.689 
		839.771,613.648 853.24,613.648 	"/>
	<polyline fill="none" stroke="#000000" stroke-width="0.4812" stroke-linecap="round" stroke-linejoin="round" points="
		840.461,512.035 833.547,514.883 827.117,518.814 821.417,523.823 817.226,528.701 	"/>
	<polyline fill="none" stroke="#000000" stroke-width="0.4812" stroke-linecap="round" stroke-linejoin="round" points="
		858.468,514.064 852.511,511.645 850.694,511.212 	"/>
	
		<line fill="none" stroke="#000000" stroke-width="0.4812" stroke-linecap="round" stroke-linejoin="round" x1="521.404" y1="613.561" x2="543.688" y2="609.634"/>
	
		<line fill="none" stroke="#000000" stroke-width="0.4812" stroke-linecap="round" stroke-linejoin="round" x1="554.531" y1="607.345" x2="559.02" y2="606.781"/>
	<polyline fill="none" stroke="#000000" stroke-width="2" stroke-linecap="round" stroke-linejoin="round" points="578.929,603.284 
		598.364,599.354 678.771,594.821 754.695,619.264 754.695,640.811 	"/>
	
		<line fill="none" stroke="#000000" stroke-width="2" stroke-linecap="round" stroke-linejoin="round" x1="754.695" y1="619.264" x2="760.869" y2="481.154"/>
	<polygon fill-rule="evenodd" clip-rule="evenodd" points="491.692,489.751 496.102,121.206 496.102,118.355 494.545,116.889 
		494.545,14.409 497.565,4.648 501.455,5.169 506.854,23.216 506.854,23.216 512.469,26.587 518.512,28.615 518.512,28.615 
		529.354,30.993 540.322,31.941 551.422,31.599 562.26,29.913 567.487,28.615 567.487,28.615 571.416,14.409 574.395,6.074 
		575.818,5.599 577.243,5.169 578.798,6.074 580.227,7.196 581.218,39.845 580.699,114.428 582.123,115.852 582.727,116.889 
		582.727,121.206 567.009,121.206 567.009,121.206 569.167,106.783 569.987,92.142 569.384,77.588 567.487,63.035 567.009,60.791 
		567.009,60.791 510.783,60.791 510.783,60.791 507.195,69.857 504.82,79.362 503.87,89.163 504.348,98.924 506.119,108.466 
		509.229,117.751 510.783,121.206 510.783,121.206 534.274,121.206 543.085,100.695 520.544,60.791 524.946,60.791 544.509,95.336 
		558.677,60.791 563.079,60.791 547.014,101.296 561.178,121.206 555.352,121.206 544.509,104.192 537.731,121.206 582.727,121.206 
		582.727,218.676 560.016,218.676 560.016,218.676 562.948,206.022 564.503,193.152 564.765,180.196 563.553,167.326 
		561.052,154.543 560.016,150.614 560.016,150.614 527.321,150.614 503.482,204.121 502.924,199.457 522.702,150.614 
		508.75,150.614 508.75,150.614 505.299,164.216 503.266,177.907 502.662,191.726 503.266,205.675 505.168,218.676 505.168,218.676 
		582.727,218.676 582.727,218.676 582.123,332.813 560.574,332.813 560.574,332.813 563.165,318.864 564.634,304.829 
		564.503,290.751 563.467,279.307 563.467,279.307 562.043,265.488 559.28,251.798 558.803,250.243 558.803,250.243 
		513.414,250.243 513.414,250.243 509.229,259.657 506.506,269.418 505.168,277.063 505.168,277.063 503.05,290.404 
		502.315,303.835 502.924,317.312 504.82,330.783 505.168,332.813 505.168,332.813 561.178,332.813 582.123,332.813 
		580.956,451.228 560.574,455.288 560.574,455.288 562.129,439.439 562.26,423.633 561.052,407.653 560.574,404.199 
		560.574,404.199 559.406,393.575 556.906,383.211 553.192,373.193 551.895,370.471 551.895,370.471 513.414,370.471 
		513.414,370.471 508.534,383.817 505.082,397.505 503.482,407.05 503.482,407.05 501.973,429.678 501.711,452.307 502.315,465.178 
		502.315,465.178 495.885,466.388 495.885,471.609 495.885,471.609 558.33,462.327 659.597,448.637 761.125,436.113 
		761.125,436.113 761.125,458.181 761.125,458.181 639.562,471.743 518.164,486.642 495.276,489.62 	"/>
	<polyline fill="none" stroke="#000000" stroke-width="0.4812" stroke-linecap="round" stroke-linejoin="round" points="
		491.692,489.751 496.102,121.206 496.102,118.355 494.545,116.889 494.545,14.409 497.565,4.648 501.455,5.169 506.854,23.216 
		506.854,23.216 512.469,26.587 518.512,28.615 518.512,28.615 529.354,30.993 540.322,31.941 551.422,31.599 562.26,29.913 
		567.487,28.615 567.487,28.615 571.416,14.409 574.395,6.074 575.818,5.599 577.243,5.169 578.798,6.074 580.227,7.196 
		581.218,39.845 580.699,114.428 582.123,115.852 582.727,116.889 582.727,121.206 567.009,121.206 567.009,121.206 
		569.167,106.783 569.987,92.142 569.384,77.588 567.487,63.035 567.009,60.791 567.009,60.791 510.783,60.791 510.783,60.791 
		507.195,69.857 504.82,79.362 503.87,89.163 504.348,98.924 506.119,108.466 509.229,117.751 510.783,121.206 510.783,121.206 
		534.274,121.206 543.085,100.695 520.544,60.791 524.946,60.791 544.509,95.336 558.677,60.791 563.079,60.791 547.014,101.296 
		561.178,121.206 555.352,121.206 544.509,104.192 537.731,121.206 582.727,121.206 582.727,218.676 560.016,218.676 
		560.016,218.676 562.948,206.022 564.503,193.152 564.765,180.196 563.553,167.326 561.052,154.543 560.016,150.614 
		560.016,150.614 527.321,150.614 503.482,204.121 502.924,199.457 522.702,150.614 508.75,150.614 508.75,150.614 505.299,164.216 
		503.266,177.907 502.662,191.726 503.266,205.675 505.168,218.676 505.168,218.676 582.727,218.676 582.727,218.676 
		582.123,332.813 560.574,332.813 560.574,332.813 563.165,318.864 564.634,304.829 564.503,290.751 563.467,279.307 
		563.467,279.307 562.043,265.488 559.28,251.798 558.803,250.243 558.803,250.243 513.414,250.243 513.414,250.243 
		509.229,259.657 506.506,269.418 505.168,277.063 505.168,277.063 503.05,290.404 502.315,303.835 502.924,317.312 504.82,330.783 
		505.168,332.813 505.168,332.813 561.178,332.813 582.123,332.813 580.956,451.228 560.574,455.288 560.574,455.288 
		562.129,439.439 562.26,423.633 561.052,407.653 560.574,404.199 560.574,404.199 559.406,393.575 556.906,383.211 
		553.192,373.193 551.895,370.471 551.895,370.471 513.414,370.471 513.414,370.471 508.534,383.817 505.082,397.505 
		503.482,407.05 503.482,407.05 501.973,429.678 501.711,452.307 502.315,465.178 502.315,465.178 495.885,466.388 495.885,471.609 
		495.885,471.609 558.33,462.327 659.597,448.637 761.125,436.113 761.125,436.113 761.125,458.181 761.125,458.181 
		639.562,471.743 518.164,486.642 495.276,489.62 491.692,489.751 	"/>
	<polygon fill-rule="evenodd" clip-rule="evenodd" points="762.424,407.439 755.516,399.925 736.079,378.245 717.121,356.177 
		698.55,333.762 680.543,310.877 662.923,287.642 645.866,264.193 629.328,240.223 613.263,216.04 597.625,191.381 582.642,166.463 
		582.642,161.369 597.625,186.287 613.263,210.815 629.328,234.998 645.866,258.968 662.923,282.547 680.543,305.651 
		698.55,328.494 717.121,350.907 736.079,373.063 755.516,394.657 762.424,402.257 	"/>
	<polyline fill="none" stroke="#000000" stroke-width="0.4812" stroke-linecap="round" stroke-linejoin="round" points="
		762.424,407.439 755.516,399.925 736.079,378.245 717.121,356.177 698.55,333.762 680.543,310.877 662.923,287.642 
		645.866,264.193 629.328,240.223 613.263,216.04 597.625,191.381 582.642,166.463 582.642,161.369 597.625,186.287 
		613.263,210.815 629.328,234.998 645.866,258.968 662.923,282.547 680.543,305.651 698.55,328.494 717.121,350.907 
		736.079,373.063 755.516,394.657 762.424,402.257 762.424,407.439 	"/>
	<polygon fill-rule="evenodd" clip-rule="evenodd" points="879.454,413.484 862.528,397.505 834.629,369.996 807.465,341.754 
		780.863,312.907 755.123,283.496 729.991,253.481 705.589,222.689 682.012,191.469 659.124,159.683 636.971,127.382 
		615.638,94.647 595.124,61.264 575.346,27.453 580.699,27.453 600.478,61.264 620.991,94.647 642.324,127.382 664.478,159.683 
		687.365,191.469 711.078,222.689 735.39,253.481 760.521,283.496 786.348,312.907 812.823,341.754 839.982,369.996 
		867.882,397.505 884.813,413.484 	"/>
	<polyline fill="none" stroke="#000000" stroke-width="0.4812" stroke-linecap="round" stroke-linejoin="round" points="
		879.454,413.484 862.528,397.505 834.629,369.996 807.465,341.754 780.863,312.907 755.123,283.496 729.991,253.481 
		705.589,222.689 682.012,191.469 659.124,159.683 636.971,127.382 615.638,94.647 595.124,61.264 575.346,27.453 580.699,27.453 
		600.478,61.264 620.991,94.647 642.324,127.382 664.478,159.683 687.365,191.469 711.078,222.689 735.39,253.481 760.521,283.496 
		786.348,312.907 812.823,341.754 839.982,369.996 867.882,397.505 884.813,413.484 879.454,413.484 	"/>
	
		<line fill="none" stroke="#000000" stroke-width="2" stroke-linecap="round" stroke-linejoin="round" x1="939.871" y1="408.345" x2="975.846" y2="403.81"/>
	<polyline fill="none" stroke="#000000" stroke-width="2" stroke-linecap="round" stroke-linejoin="round" points="904.329,391.676 
		905.325,370.947 921.043,370.947 	"/>
	<polyline fill="none" stroke="#000000" stroke-width="2" stroke-linecap="round" stroke-linejoin="round" points="916.727,370.947 
		916.727,359.89 926.396,359.89 	"/>
	
		<line fill="none" stroke="#000000" stroke-width="0.4812" stroke-linecap="round" stroke-linejoin="round" x1="904.113" y1="418.71" x2="903.293" y2="411.93"/>
	<polyline fill="none" stroke="#000000" stroke-width="2" stroke-linecap="round" stroke-linejoin="round" points="77.89,574.824 
		101.513,565.151 101.513,444.835 103.369,442.418 105.183,354.75 106.393,352.378 109.457,350.562 	"/>
	<polyline fill="none" stroke="#000000" stroke-width="2" stroke-linecap="round" stroke-linejoin="round" points="68.129,571.111 
		77.417,539.066 85.276,506.679 92.099,473.901 97.54,440.994 101.814,407.869 104.579,378.937 	"/>
	<polyline fill="none" stroke="#000000" stroke-width="0.4812" stroke-linecap="round" stroke-linejoin="round" points="
		112.438,560.877 129.366,554.572 145.821,547.059 	"/>
	<polyline fill="none" stroke="#000000" stroke-width="2" stroke-linecap="round" stroke-linejoin="round" points="482.538,467.726 
		429.766,476.535 377.208,486.642 324.997,497.954 272.958,510.478 221.353,524.299 170.005,539.282 156.878,543.257 	"/>
	<polyline fill="none" stroke="#000000" stroke-width="0.4812" stroke-linecap="round" stroke-linejoin="round" points="
		478.953,683.61 396.858,683.61 396.858,678.34 396.858,673.374 	"/>
	
		<line fill="none" stroke="#000000" stroke-width="0.4812" stroke-linecap="round" stroke-linejoin="round" x1="464.442" y1="673.591" x2="478.35" y2="673.591"/>
	
		<line fill="none" stroke="#000000" stroke-width="0.4812" stroke-linecap="round" stroke-linejoin="round" x1="472.045" y1="651.435" x2="485.257" y2="651.435"/>
	
		<line fill="none" stroke="#000000" stroke-width="0.4812" stroke-linecap="round" stroke-linejoin="round" x1="482.538" y1="629.281" x2="488.153" y2="629.281"/>
	<polyline fill="none" stroke="#000000" stroke-width="2" stroke-linecap="round" stroke-linejoin="round" points="482.538,605.659 
		486.47,125.482 487.547,120.385 487.547,43.604 494.804,25.033 	"/>
	
		<line fill="none" stroke="#000000" stroke-width="2" stroke-linecap="round" stroke-linejoin="round" x1="893.879" y1="412.878" x2="795.545" y2="423.719"/>
	<polyline fill="none" stroke="#000000" stroke-width="2" stroke-linecap="round" stroke-linejoin="round" points="761.125,436.242 
		763.113,394.526 778.142,394.526 	"/>
	<polyline fill="none" stroke="#000000" stroke-width="2" stroke-linecap="round" stroke-linejoin="round" points="772.788,394.526 
		772.788,386.063 781.729,386.063 	"/>
	
		<line fill="none" stroke="#000000" stroke-width="0.4812" stroke-linecap="round" stroke-linejoin="round" x1="902.302" y1="459.477" x2="903.167" y2="456.022"/>
	
		<line fill="none" stroke="#000000" stroke-width="0.4812" stroke-linecap="round" stroke-linejoin="round" x1="898.241" y1="591.883" x2="898.241" y2="575.169"/>
	
		<line fill="none" stroke="#000000" stroke-width="0.4812" stroke-linecap="round" stroke-linejoin="round" x1="899.448" y1="548.138" x2="900.058" y2="539.196"/>
	
		<line fill="none" stroke="#000000" stroke-width="0.4812" stroke-linecap="round" stroke-linejoin="round" x1="502.315" y1="465.524" x2="560.836" y2="456.022"/>
	<polyline fill="none" stroke="#000000" stroke-width="2" stroke-linecap="round" stroke-linejoin="round" points="581.087,451.012 
		655.279,442.549 729.302,432.787 761.473,428.123 	"/>
	<polygon fill-rule="evenodd" clip-rule="evenodd" points="155.235,458.312 156.272,464.616 157.869,470.792 159.899,476.75 
		162.362,482.712 165.341,488.324 168.797,493.678 172.767,498.646 176.913,503.438 181.58,507.846 186.543,511.815 191.901,515.36 
		197.514,518.47 203.257,521.059 207.879,522.744 207.879,522.744 213.235,523.823 218.719,524.299 224.246,524.299 
		229.688,523.695 235.086,522.658 240.269,521.059 245.32,519.028 250.2,516.568 254.865,513.544 259.141,510.09 262.077,507.24 
		262.077,504.521 259.141,507.368 254.865,510.824 250.2,513.803 245.32,516.309 240.269,518.339 235.086,519.894 229.688,520.973 
		224.246,521.534 218.719,521.534 213.235,521.059 207.879,520.022 207.879,520.022 203.257,518.339 197.514,515.705 
		191.901,512.639 186.543,509.054 181.58,505.124 176.913,500.676 172.767,495.924 168.797,490.915 165.341,485.563 162.362,479.99 
		159.899,474.03 157.869,468.027 156.272,461.852 155.235,455.547 	"/>
	<polyline fill="none" stroke="#000000" stroke-width="0.4812" stroke-linecap="round" stroke-linejoin="round" points="
		155.235,458.312 156.272,464.616 157.869,470.792 159.899,476.75 162.362,482.712 165.341,488.324 168.797,493.678 
		172.767,498.646 176.913,503.438 181.58,507.846 186.543,511.815 191.901,515.36 197.514,518.47 203.257,521.059 207.879,522.744 
		207.879,522.744 213.235,523.823 218.719,524.299 224.246,524.299 229.688,523.695 235.086,522.658 240.269,521.059 
		245.32,519.028 250.2,516.568 254.865,513.544 259.141,510.09 262.077,507.24 262.077,504.521 259.141,507.368 254.865,510.824 
		250.2,513.803 245.32,516.309 240.269,518.339 235.086,519.894 229.688,520.973 224.246,521.534 218.719,521.534 213.235,521.059 
		207.879,520.022 207.879,520.022 203.257,518.339 197.514,515.705 191.901,512.639 186.543,509.054 181.58,505.124 
		176.913,500.676 172.767,495.924 168.797,490.915 165.341,485.563 162.362,479.99 159.899,474.03 157.869,468.027 156.272,461.852 
		155.235,455.547 155.235,458.312 	"/>
	<polygon fill-rule="evenodd" clip-rule="evenodd" points="261.126,515.962 247.695,508.447 230.032,496.399 214.098,482.452 
		200.017,466.991 188.963,449.932 178.468,431.968 169.401,413.009 161.884,392.972 155.323,372.501 152.385,362.008 
		154.287,360.106 157.266,370.557 163.786,391.112 171.343,411.107 180.37,430.022 190.82,448.033 201.919,465.089 215.997,480.594 
		231.977,494.5 249.597,506.548 263.071,514.064 	"/>
	<polyline fill="none" stroke="#000000" stroke-width="0.4812" stroke-linecap="round" stroke-linejoin="round" points="
		261.126,515.962 247.695,508.447 230.032,496.399 214.098,482.452 200.017,466.991 188.963,449.932 178.468,431.968 
		169.401,413.009 161.884,392.972 155.323,372.501 152.385,362.008 154.287,360.106 157.266,370.557 163.786,391.112 
		171.343,411.107 180.37,430.022 190.82,448.033 201.919,465.089 215.997,480.594 231.977,494.5 249.597,506.548 263.071,514.064 
		261.126,515.962 	"/>
	<polygon fill-rule="evenodd" clip-rule="evenodd" points="494.673,224.289 490.525,236.553 485.043,249.509 475.499,270.714 
		465.134,292.65 443.195,335.06 432.83,355.573 421.907,376.086 411.628,395.259 399.968,415.039 383.513,439.698 375.266,450.667 
		367.06,461.635 352.68,477.355 336.831,493.076 330.612,498.43 323.098,505.338 323.098,498.216 330.612,491.26 336.831,485.906 
		352.68,470.186 367.06,454.466 375.266,443.5 383.513,432.574 399.968,407.869 411.628,388.091 421.907,368.917 432.83,348.446 
		443.195,327.933 465.134,285.526 475.499,263.587 485.043,242.384 490.525,229.386 494.673,217.119 	"/>
	<polyline fill="none" stroke="#000000" stroke-width="0.4812" stroke-linecap="round" stroke-linejoin="round" points="
		494.673,224.289 490.525,236.553 485.043,249.509 475.499,270.714 465.134,292.65 443.195,335.06 432.83,355.573 421.907,376.086 
		411.628,395.259 399.968,415.039 383.513,439.698 375.266,450.667 367.06,461.635 352.68,477.355 336.831,493.076 330.612,498.43 
		323.098,505.338 323.098,498.216 330.612,491.26 336.831,485.906 352.68,470.186 367.06,454.466 375.266,443.5 383.513,432.574 
		399.968,407.869 411.628,388.091 421.907,368.917 432.83,348.446 443.195,327.933 465.134,285.526 475.499,263.587 
		485.043,242.384 490.525,229.386 494.673,217.119 494.673,224.289 	"/>
	<polygon fill-rule="evenodd" clip-rule="evenodd" points="495.669,17.777 475.154,83.895 448.551,160.763 420.956,235.215 
		390.768,308.5 355.875,379.409 338.947,414.217 318.477,447.773 290.708,483.919 263.071,512.724 263.071,504.736 290.708,475.932 
		318.477,439.826 338.947,406.229 355.875,371.422 390.768,300.512 420.956,227.227 448.551,152.772 475.154,75.905 495.669,9.788 	
		"/>
	<polyline fill="none" stroke="#000000" stroke-width="0.4812" stroke-linecap="round" stroke-linejoin="round" points="
		495.669,17.777 475.154,83.895 448.551,160.763 420.956,235.215 390.768,308.5 355.875,379.409 338.947,414.217 318.477,447.773 
		290.708,483.919 263.071,512.724 263.071,504.736 290.708,475.932 318.477,439.826 338.947,406.229 355.875,371.422 
		390.768,300.512 420.956,227.227 448.551,152.772 475.154,75.905 495.669,9.788 495.669,17.777 	"/>
	<polyline fill="none" stroke="#000000" stroke-width="2" stroke-linecap="round" stroke-linejoin="round" points="6.98,697.902 
		721.182,697.902 688.447,698.033 654.807,698.033 638.138,698.033 611.577,698.033 561.524,698.033 	"/>
	
		<line fill="none" stroke="#000000" stroke-width="2" stroke-linecap="round" stroke-linejoin="round" x1="721.182" y1="688.488" x2="6.98" y2="688.488"/>
	
		<line fill="none" stroke="#000000" stroke-width="2" stroke-linecap="round" stroke-linejoin="round" x1="6.98" y1="683.392" x2="721.182" y2="683.392"/>
	
		<line fill="none" stroke="#000000" stroke-width="0.4812" stroke-linecap="round" stroke-linejoin="round" x1="722.992" y1="681.19" x2="664.824" y2="681.19"/>
	
		<line fill="none" stroke="#000000" stroke-width="2" stroke-linecap="round" stroke-linejoin="round" x1="724.638" y1="679.074" x2="663.185" y2="679.074"/>
	<polyline fill="none" stroke="#000000" stroke-width="0.4812" stroke-linecap="round" stroke-linejoin="round" points="
		721.182,704.685 721.182,683.392 727.27,677.045 	"/>
	
		<line fill="none" stroke="#000000" stroke-width="2" stroke-linecap="round" stroke-linejoin="round" x1="956.414" y1="735.69" x2="6.98" y2="735.69"/>
	
		<line fill="none" stroke="#000000" stroke-width="2" stroke-linecap="round" stroke-linejoin="round" x1="396.858" y1="678.34" x2="6.98" y2="678.34"/>
	
		<line fill="none" stroke="#000000" stroke-width="2" stroke-linecap="round" stroke-linejoin="round" x1="487.074" y1="711.464" x2="6.98" y2="711.464"/>
	
		<line fill="none" stroke="#000000" stroke-width="0.4812" stroke-linecap="round" stroke-linejoin="round" x1="784.019" y1="711.464" x2="607.778" y2="711.464"/>
	
		<line fill="none" stroke="#000000" stroke-width="2" stroke-linecap="round" stroke-linejoin="round" x1="6.98" y1="697.902" x2="499.599" y2="697.902"/>
	
		<line fill="none" stroke="#000000" stroke-width="0.4812" stroke-linecap="round" stroke-linejoin="round" x1="611.577" y1="698.033" x2="561.524" y2="698.033"/>
	
		<line fill="none" stroke="#000000" stroke-width="0.4812" stroke-linecap="round" stroke-linejoin="round" x1="654.807" y1="698.033" x2="638.138" y2="698.033"/>
	
		<line fill="none" stroke="#000000" stroke-width="0.4812" stroke-linecap="round" stroke-linejoin="round" x1="721.182" y1="697.902" x2="688.447" y2="698.033"/>
	<polygon fill-rule="evenodd" clip-rule="evenodd" points="873.497,527.622 870.734,523.954 864.168,517.863 860.843,515.36 
		858.599,516.998 858.599,527.622 858.599,581.951 858.599,586.743 858.599,598.275 848.104,592.313 858.599,586.743 
		858.599,581.951 842.75,589.853 832.254,584.499 830.916,588.646 838.82,592.575 828.325,597.669 830.916,588.646 835.711,573.961 
		839.51,564.203 843.695,554.701 848.365,545.373 853.457,536.349 858.599,527.408 858.599,516.439 850.694,528.356 
		847.847,532.978 841.28,544.336 832.728,564.547 830.353,571.846 827.505,579.704 824.954,579.704 823.057,584.197 
		823.057,597.669 822.493,601.385 821.502,606.394 816.536,623.797 817.14,608.899 821.417,606.394 822.493,601.385 817.14,603.284 
		817.14,581.131 822.926,584.197 822.926,579.445 817.356,576.379 817.356,571.501 822.926,558.371 822.926,579.835 
		824.954,579.704 825.085,553.967 830.438,544.163 830.353,571.846 832.858,564.203 833.205,539.544 839.641,525.981 
		839.641,548.482 841.451,544.336 841.28,524.299 847.847,514.754 847.847,532.978 850.609,527.969 850.694,511.429 
		841.537,512.248 828.672,532.978 817.14,556.125 817.14,528.573 812.823,534.318 805.693,546.452 799.389,562.085 792.22,586.96 
		786.951,612.354 783.757,638.092 782.59,660.806 778.142,660.806 778.745,645.088 779.696,632.348 783.283,607.214 
		788.898,582.469 796.365,558.24 800.903,546.366 804.486,538.679 811.525,528.143 819.988,518.684 830.01,510.955 832.728,509.185 
		839.51,506.679 846.634,506.075 853.719,507.499 860.108,510.955 863.349,512.508 869.567,517.388 874.402,523.695 
		876.953,527.277 885.849,542.522 892.888,558.502 898.155,575.3 899.579,548.223 896.47,540.709 888.998,526.326 879.67,512.94 
		866.589,498.646 859.202,494.629 850.956,492.47 842.619,492.47 834.373,494.369 826.986,498.344 817.009,506.548 808.763,516.093 
		802.327,526.674 796.496,539.196 786.132,564.719 777.669,591.021 772.185,613.174 771.233,613.174 770.328,685.985 831.52,679.55 
		835.494,673.719 839.856,670.74 839.856,658.949 817.744,659.9 818.563,645.347 821.502,626.434 826.554,607.817 827.505,603.284 
		843.309,594.821 858.599,603.284 858.599,614.253 853.24,613.648 853.24,660.375 871.207,647.374 882.779,646.815 897.205,642.151 
		898.372,591.969 892.153,573.357 878.246,536.563 	"/>
	<polyline fill="none" stroke="#000000" stroke-width="0.4812" stroke-linecap="round" stroke-linejoin="round" points="
		873.497,527.622 870.734,523.954 864.168,517.863 860.843,515.36 858.599,516.998 858.599,527.622 858.599,581.951 
		858.599,586.743 858.599,598.275 848.104,592.313 858.599,586.743 858.599,581.951 842.75,589.853 832.254,584.499 
		830.916,588.646 838.82,592.575 828.325,597.669 830.916,588.646 835.711,573.961 839.51,564.203 843.695,554.701 848.365,545.373 
		853.457,536.349 858.599,527.408 858.599,516.439 850.694,528.356 847.847,532.978 841.28,544.336 832.728,564.547 
		830.353,571.846 827.505,579.704 824.954,579.704 823.057,584.197 823.057,597.669 822.493,601.385 821.502,606.394 
		816.536,623.797 817.14,608.899 821.417,606.394 822.493,601.385 817.14,603.284 817.14,581.131 822.926,584.197 822.926,579.445 
		817.356,576.379 817.356,571.501 822.926,558.371 822.926,579.835 824.954,579.704 825.085,553.967 830.438,544.163 
		830.353,571.846 832.858,564.203 833.205,539.544 839.641,525.981 839.641,548.482 841.451,544.336 841.28,524.299 
		847.847,514.754 847.847,532.978 850.609,527.969 850.694,511.429 841.537,512.248 828.672,532.978 817.14,556.125 817.14,528.573 
		812.823,534.318 805.693,546.452 799.389,562.085 792.22,586.96 786.951,612.354 783.757,638.092 782.59,660.806 778.142,660.806 
		778.745,645.088 779.696,632.348 783.283,607.214 788.898,582.469 796.365,558.24 800.903,546.366 804.486,538.679 
		811.525,528.143 819.988,518.684 830.01,510.955 832.728,509.185 839.51,506.679 846.634,506.075 853.719,507.499 860.108,510.955 
		863.349,512.508 869.567,517.388 874.402,523.695 876.953,527.277 885.849,542.522 892.888,558.502 898.155,575.3 899.579,548.223 
		896.47,540.709 888.998,526.326 879.67,512.94 866.589,498.646 859.202,494.629 850.956,492.47 842.619,492.47 834.373,494.369 
		826.986,498.344 817.009,506.548 808.763,516.093 802.327,526.674 796.496,539.196 786.132,564.719 777.669,591.021 
		772.185,613.174 771.233,613.174 770.328,685.985 831.52,679.55 835.494,673.719 839.856,670.74 839.856,658.949 817.744,659.9 
		818.563,645.347 821.502,626.434 826.554,607.817 827.505,603.284 843.309,594.821 858.599,603.284 858.599,614.253 
		853.24,613.648 853.24,660.375 871.207,647.374 882.779,646.815 897.205,642.151 898.372,591.969 892.153,573.357 878.246,536.563 
		873.497,527.622 	"/>
</g>
</svg>
